<?xml version="1.0" encoding="UTF-8" standalone="no"?>
<svg
   xmlns:dc="http://purl.org/dc/elements/1.1/"
   xmlns:cc="http://creativecommons.org/ns#"
   xmlns:rdf="http://www.w3.org/1999/02/22-rdf-syntax-ns#"
   xmlns:svg="http://www.w3.org/2000/svg"
   xmlns="http://www.w3.org/2000/svg"
   xmlns:sodipodi="http://sodipodi.sourceforge.net/DTD/sodipodi-0.dtd"
   xmlns:inkscape="http://www.inkscape.org/namespaces/inkscape"
   version="1.1"
   id="svg833"
   xml:space="preserve"
   width="1472.1467"
   height="1708.1733"
   viewBox="0 0 1472.1467 1708.1733"
   sodipodi:docname="Healthy-Athletic-Logo.svg"
   inkscape:version="1.0.2-2 (e86c870879, 2021-01-15)"><metadata
     id="metadata839"><rdf:RDF><cc:Work
         rdf:about=""><dc:format>image/svg+xml</dc:format><dc:type
           rdf:resource="http://purl.org/dc/dcmitype/StillImage" /><dc:title></dc:title></cc:Work></rdf:RDF></metadata><defs
     id="defs837"><clipPath
       clipPathUnits="userSpaceOnUse"
       id="clipPath849"><path
         d="M 0,1281.128 H 1104.11 V 0 H 0 Z"
         id="path847" /></clipPath></defs><sodipodi:namedview
     pagecolor="#ffffff"
     bordercolor="#666666"
     borderopacity="1"
     objecttolerance="10"
     gridtolerance="10"
     guidetolerance="10"
     inkscape:pageopacity="0"
     inkscape:pageshadow="2"
     inkscape:window-width="1920"
     inkscape:window-height="1051"
     id="namedview835"
     showgrid="false"
     inkscape:zoom="0.5151702"
     inkscape:cx="736.07336"
     inkscape:cy="1009.3752"
     inkscape:window-x="-9"
     inkscape:window-y="-9"
     inkscape:window-maximized="1"
     inkscape:current-layer="g841" /><g
     id="g841"
     inkscape:groupmode="layer"
     inkscape:label="Healthy-Athletic-Logo"
     transform="matrix(1.3333333,0,0,-1.3333333,0,1708.1733)"><g
       id="g843"><g
         id="g845"
         clip-path="url(#clipPath849)"><g
           id="g851"
           transform="translate(297.6411,846.2394)"><path
             d="m 0,0 c 0,0 203.667,-154.667 214,-314.667 10.333,-160 -72,-293.666 -98.667,-308.666 0,0 220.834,67.022 259.334,330.761 l 23.576,-96.531 37.424,-153.23 h 60 l -101,399 -76,-1 c 0,0 3.833,-63.167 -31,-106.667 0,0 -125.481,166.677 -287.667,251"
             style="fill:#a88589;fill-opacity:1;fill-rule:evenodd;stroke:none"
             id="path853" /></g><g
           id="g855"
           transform="translate(344.9745,703.5728)"><path
             d="m 0,0 v -401.333 h 58.667 v 200.666 h 96 c 0,0 21,24.856 0,50.761 l -95.667,0 V 0 Z"
             style="fill:#a88589;fill-opacity:1;fill-rule:evenodd;stroke:none"
             id="path857" /></g><g
           id="g859"
           transform="translate(411.1412,1011.2394)"><path
             d="m 0,0 c 0,0 -202.318,-56.094 -280.25,-280.25 -77.932,-224.156 43.417,-389.417 43.417,-389.417 0,0 126,-214.885 379,-209.385 0,0 229.5,-13.781 377,202.719 0,0 109.893,132.592 62.5,355.5 0,0 70.166,-181.667 -55.167,-378.834 -125.333,-197.166 -333.333,-209.666 -333.333,-209.666 0,0 -209.042,-42.292 -394.375,135.375 0,0 -182.473,151.058 -117.976,451.043 0,0 64.517,248.748 319.184,322.915"
             style="fill:#a88589;fill-opacity:1;fill-rule:evenodd;stroke:none"
             id="path861" /></g><g
           id="g863"
           transform="translate(403.6411,999.9061)"><path
             d="m 0,0 c 0,0 36.657,21.599 136.667,16.333 0,0 -50.334,10.5 -136.667,3 0,0 134.667,154.334 280.667,-11 C 274.405,8.895 266.831,9.047 258.323,8.104 245.094,6.638 188.885,-17.839 165.667,-29.667 130.167,-47.75 89.417,-53.375 54.417,-44.292 21.852,-35.84 5.469,-8.979 0,0"
             style="fill:#a88589;fill-opacity:1;fill-rule:evenodd;stroke:none"
             id="path865" /></g><g
           id="g867"
           transform="translate(389.6828,1117.0762)"><path
             d="m 0,0 c 0,0 -13,-28.5 -24,-101.667 0,0 -40.75,40.584 -29,109.334 0,0 7.75,45.826 83.5,98.288 0,0 -5.438,-12.5 -5.25,-27.75 0.187,-15.25 7.125,-44 7.125,-44 0,0 10.417,-28.208 9.917,-59.042 C 41.792,-55.67 35,-63.92 35,-63.92 c 0,0 -12.875,-28.25 -46.5,-40.25 0,0 -6.375,34.715 11.5,104.17"
             style="fill:#a88589;fill-opacity:1;fill-rule:evenodd;stroke:none"
             id="path869" /></g><g
           id="g871"
           transform="translate(653.9745,457.0728)"><path
             d="m 0,0 c 0,0 -7.667,-6.667 -18.667,-44.333 h 71.42 L 41.909,0.064 Z"
             style="fill:#a88589;fill-opacity:1;fill-rule:evenodd;stroke:none"
             id="path873" /></g><g
           id="g875"
           transform="translate(610.3707,697.511)"><path
             d="m 0,0 c 6.394,-26.154 -6.472,-51.768 -28.736,-57.21 -22.265,-5.443 -45.496,11.346 -51.89,37.5 -6.393,26.154 6.472,51.768 28.737,57.211 C -29.625,42.943 -6.393,26.154 0,0"
             style="fill:#a88589;fill-opacity:1;fill-rule:evenodd;stroke:none"
             id="path877" /></g><g
           id="g879"
           transform="translate(413.3078,943.9061)"><path
             d="m 0,0 c 0,0 -8.909,14.494 -37.994,43.892 0,0 29.14,0.052 56.077,-28.064 0,0 17.978,-18.713 19.99,-63.487 0,0 -3.981,6.265 -10.731,11.526 -6.751,5.261 -21.306,12.881 -21.306,12.881 0,0 -15.283,6.216 -28.688,17.161 -13.405,10.944 -15.143,16.198 -15.143,16.198 0,0 -8.835,14.363 -4.77,30.295 0,0 17.019,-9.9 42.565,-40.402"
             style="fill:#a88589;fill-opacity:1;fill-rule:evenodd;stroke:none"
             id="path881" /></g></g></g></g></svg>
